HIERARCHY
ROOT SpineBase
{
  OFFSET 0.000000 0.000000 0.000000
  CHANNELS 6 Xposition Yposition Zposition Zrotation Xrotation Yrotation
  JOINT SpineMid
  {
    OFFSET -0.000000 32.665873 0.000000
    CHANNELS 3 Zrotation Xrotation Yrotation
    JOINT SpineShoulder
    {
      OFFSET 0.425892 24.080464 -0.551254
      CHANNELS 3 Zrotation Xrotation Yrotation
      JOINT Neck
      {
        OFFSET 0.173378 8.048196 -0.577613
        CHANNELS 3 Zrotation Xrotation Yrotation
        JOINT Head
        {
          OFFSET -5.540768 8.634130 4.545100
          CHANNELS 3 Zrotation Xrotation Yrotation
          End Site
          {
            OFFSET 0 0 0
          }
        }
      }
      JOINT ShoulderLeft
      {
        OFFSET -5.098003 -5.373882 -19.338765
        CHANNELS 3 Zrotation Xrotation Yrotation
        JOINT ElbowLeft
        {
          OFFSET -0.686664 -22.883034 0.336483
          CHANNELS 3 Zrotation Xrotation Yrotation
          JOINT WristLeft
          {
            OFFSET 2.959660 17.307064 -10.948497
            CHANNELS 3 Zrotation Xrotation Yrotation
            JOINT HandLeft
            {
              OFFSET 1.567893 2.579433 7.987508
              CHANNELS 3 Zrotation Xrotation Yrotation
              JOINT HandTipLeft
              {
                OFFSET -0.322025 3.657053 -0.577123
                CHANNELS 3 Zrotation Xrotation Yrotation
                End Site
                {
                  OFFSET 0 0 0
                }
              }
              JOINT ThumbLeft
              {
                OFFSET -1.924945 1.281672 -1.122591
                CHANNELS 3 Zrotation Xrotation Yrotation
                End Site
                {
                  OFFSET 0 0 0
                }
              }
            }
          }
        }
      }
      JOINT ShoulderRight
      {
        OFFSET 6.737989 -3.742973 -11.376419
        CHANNELS 3 Zrotation Xrotation Yrotation
        JOINT ElbowRight
        {
          OFFSET -8.142394 -18.652940 -8.598517
          CHANNELS 3 Zrotation Xrotation Yrotation
          JOINT WristRight
          {
            OFFSET -11.956578 -17.873694 -0.735848
            CHANNELS 3 Zrotation Xrotation Yrotation
            JOINT HandRight
            {
              OFFSET -3.074676 -2.762037 -0.967210
              CHANNELS 3 Zrotation Xrotation Yrotation
              JOINT HandTipRight
              {
                OFFSET -4.531158 -4.613488 -3.429335
                CHANNELS 3 Zrotation Xrotation Yrotation
                End Site
                {
                  OFFSET 0 0 0
                }
              }
              JOINT ThumbRight
              {
                OFFSET 3.177073 -1.482994 -2.948387
                CHANNELS 3 Zrotation Xrotation Yrotation
                End Site
                {
                  OFFSET 0 0 0
                }
              }
            }
          }
        }
      }
    }
  }
  JOINT HipLeft
  {
    OFFSET -5.872113 -0.377287 -4.885704
    CHANNELS 3 Zrotation Xrotation Yrotation
    JOINT KneeLeft
    {
      OFFSET -29.500358 11.450615 -1.302959
      CHANNELS 3 Zrotation Xrotation Yrotation
      JOINT AnkleLeft
      {
        OFFSET 13.407415 -30.615579 -25.660280
        CHANNELS 3 Zrotation Xrotation Yrotation
        JOINT FootLeft
        {
          OFFSET 4.842380 -2.911602 -11.304480
          CHANNELS 3 Zrotation Xrotation Yrotation
          End Site
          {
            OFFSET 0 0 0
          }
        }
      }
    }
  }
  JOINT HipRight
  {
    OFFSET 6.025593 2.272657 -1.745480
    CHANNELS 3 Zrotation Xrotation Yrotation
    JOINT KneeRight
    {
      OFFSET -33.451847 3.529402 -24.811177
      CHANNELS 3 Zrotation Xrotation Yrotation
      JOINT AnkleRight
      {
        OFFSET 19.572201 -23.247970 -4.823165
        CHANNELS 3 Zrotation Xrotation Yrotation
        JOINT FootRight
        {
          OFFSET -8.711508 -6.269392 -6.818304
          CHANNELS 3 Zrotation Xrotation Yrotation
          End Site
          {
            OFFSET 0 0 0
          }
        }
      }
    }
  }
}
MOTION
Frames: 14
Frame Time: 0.033333
-15.138735 25.860658 374.597645 0.000000 0.000000 -14.785209 -0.000000 0.000000 14.785209 -0.000000 0.000000 0.000000 -0.000000 0.000000 0.000000 0.000000 0.000000 0.000000 -0.000000 0.000000 0.000000 -0.000000 0.000000 0.000000 -0.000000 0.000000 0.000000 -0.000000 0.000000 0.000000 0.000000 0.000000 0.000000 0.000000 0.000000 0.000000 -0.000000 0.000000 0.000000 -0.000000 0.000000 0.000000 -0.000000 0.000000 0.000000 -0.000000 0.000000 0.000000 0.000000 0.000000 0.000000 0.000000 0.000000 0.000000 -0.000000 0.000000 14.785209 -0.000000 0.000000 0.000000 -0.000000 0.000000 0.000000 0.000000 0.000000 0.000000 -0.000000 0.000000 14.785209 -0.000000 0.000000 0.000000 -0.000000 0.000000 0.000000 0.000000 0.000000 0.000000
-15.430438 25.720070 374.390372 -0.412204 0.270492 -19.451681 0.478754 -0.117778 19.453146 -0.000000 0.000000 0.000000 -0.000000 0.000000 0.000000 0.000000 0.000000 0.000000 -0.000000 0.000000 0.000000 -0.000000 0.000000 0.000000 0.341361 -0.200441 -0.941416 0.850143 -0.225226 1.091416 0.000000 0.000000 0.000000 0.000000 0.000000 0.000000 -0.129580 -0.801020 0.409611 0.135316 0.800071 -0.411461 0.195105 1.069876 -1.259374 -2.805922 -0.534703 2.547802 0.000000 0.000000 0.000000 0.000000 0.000000 0.000000 -0.531154 0.438686 21.626104 0.733822 -0.889438 -2.164433 1.497265 2.062576 -2.207268 0.000000 0.000000 0.000000 -0.530602 0.180267 19.293159 -0.105217 -0.427917 0.517320 1.965775 -0.363464 -1.239467 0.000000 0.000000 0.000000
-15.656274 25.675153 374.198887 -0.739723 0.496496 -22.092115 0.872144 -0.181800 22.096704 -0.000000 0.000000 0.000000 -0.000000 0.000000 0.000000 0.000000 0.000000 0.000000 -0.000000 0.000000 0.000000 -0.000000 0.000000 0.000000 0.611948 -0.421221 -1.660879 1.035559 -0.498080 1.840328 0.000000 0.000000 0.000000 0.000000 0.000000 0.000000 -0.218295 -1.330736 0.682090 -0.974572 1.587771 -0.770159 1.458543 1.766978 -2.203344 -5.020845 -1.056406 4.514708 0.000000 0.000000 0.000000 0.000000 0.000000 0.000000 -0.638067 0.775055 25.825341 0.942893 -1.518998 -3.708318 2.489323 3.345135 -3.630078 0.000000 0.000000 0.000000 -0.897370 0.261899 21.916764 -0.286046 -0.724754 0.837954 3.473779 -0.648464 -2.201389 0.000000 0.000000 0.000000
-15.816244 25.725908 374.023191 -0.984336 0.679236 -23.063895 1.171754 -0.239235 23.072177 -0.000000 0.000000 0.000000 -0.000000 0.000000 0.000000 0.000000 0.000000 0.000000 0.640537 0.642306 -0.013449 -0.640427 -0.642416 0.006268 0.814211 -0.659653 -2.163336 0.616640 -0.850151 2.260862 0.000000 0.000000 0.000000 0.000000 0.000000 0.000000 -0.274063 -1.617408 0.833083 -1.311434 1.857455 -0.873305 1.772420 2.619212 -3.113366 -6.689690 -1.486599 5.963643 0.000000 0.000000 0.000000 0.000000 0.000000 0.000000 -0.277118 1.112503 27.749201 1.126994 -2.435843 -5.302442 2.448442 4.560357 -3.726309 0.000000 0.000000 0.000000 -1.085581 0.298380 23.012404 -0.538526 -0.887482 0.964736 4.529713 -0.837287 -2.894292 0.000000 0.000000 0.000000
-15.910347 25.872333 373.863283 -1.146953 0.819495 -22.495156 1.373235 -0.318164 22.507171 -0.000000 0.000000 0.000000 -0.000000 0.000000 0.000000 0.000000 0.000000 0.000000 0.797145 0.733905 -0.015411 -0.797013 -0.734048 0.005200 0.950585 -0.914018 -2.453085 -0.373654 -1.294599 2.360139 0.000000 0.000000 0.000000 0.000000 0.000000 0.000000 -0.301207 -1.676953 0.871380 -1.520216 1.791184 -0.810056 1.780715 3.477792 -3.915895 -7.841428 -1.762601 6.935009 0.000000 0.000000 0.000000 0.000000 0.000000 0.000000 0.586048 1.459414 27.528970 0.492057 -2.468165 -5.752088 2.386652 4.632250 -3.732576 0.000000 0.000000 0.000000 -1.088604 0.311493 22.710840 -0.862306 -0.911302 0.897533 5.138158 -0.917833 -3.324945 0.000000 0.000000 0.000000
-15.938584 26.114430 373.719164 -1.227609 0.917612 -20.299328 1.469737 -0.434537 20.314733 -0.000000 0.000000 0.000000 -0.000000 0.000000 0.000000 0.000000 0.000000 0.000000 0.923432 0.761440 -0.015412 -0.923308 -0.761590 0.003139 1.023395 -1.183470 -2.533568 -1.924948 -1.828607 2.138525 0.000000 0.000000 0.000000 0.000000 0.000000 0.000000 -0.301249 -1.514711 0.800071 -1.589837 1.395794 -0.588949 1.469971 4.352835 -4.614047 -8.482679 -1.827323 7.442009 0.000000 0.000000 0.000000 0.000000 0.000000 0.000000 1.994732 1.725419 25.072770 -0.634045 -2.103607 -5.550875 1.917709 4.053819 -3.169042 0.000000 0.000000 0.000000 -0.900921 0.297310 20.931490 -1.260782 -0.789250 0.632928 5.301675 -0.883098 -3.497484 0.000000 0.000000 0.000000
-15.821345 26.548906 373.614081 -1.078672 0.925419 -14.472187 1.275785 -0.626315 14.487871 -0.000000 0.000000 0.000000 -0.000000 0.000000 0.000000 0.000000 0.000000 0.000000 1.092251 0.626212 -0.008702 -1.092221 -0.626264 -0.003236 1.321210 -2.550469 -2.717395 -3.626484 -1.216889 2.115171 0.000000 0.000000 0.000000 0.000000 0.000000 0.000000 -0.000000 0.000000 0.000000 -1.539692 -0.792489 0.577851 0.480171 5.562596 -5.343351 -6.643019 -2.294692 7.068443 0.000000 0.000000 0.000000 0.000000 0.000000 0.000000 3.870337 1.025784 17.091055 -2.423982 -1.314691 -3.304278 1.979118 4.191754 -2.775705 0.000000 0.000000 0.000000 -0.828014 0.327361 15.919726 -2.179574 -0.493938 0.142477 6.149586 -1.092956 -3.992191 0.000000 0.000000 0.000000
-15.640574 26.923768 373.502478 -0.876844 0.921042 -7.815018 0.994030 -0.793142 7.828946 -0.000000 0.000000 0.000000 -0.000000 0.000000 0.000000 0.000000 0.000000 0.000000 1.178821 0.515131 -0.003424 -1.178838 -0.515092 -0.007174 1.338471 -2.525929 -2.789523 -7.431475 -2.162614 1.508156 0.000000 0.000000 0.000000 0.000000 0.000000 0.000000 -0.000000 0.000000 0.000000 -0.438138 -0.757478 0.520669 -4.395753 8.227377 -6.298165 -3.989749 -1.708879 6.377561 0.000000 0.000000 0.000000 0.000000 0.000000 0.000000 6.218468 0.204564 9.029228 -4.723289 -0.282674 -1.722633 -0.596097 0.099030 0.544345 0.000000 0.000000 0.000000 -0.156174 0.014345 9.956782 -2.546522 -0.201741 -0.835473 3.674366 0.336925 -2.899850 0.000000 0.000000 0.000000
-15.559494 27.486722 373.361743 -0.854957 0.941985 0.170550 0.852265 -0.944421 -0.156498 -0.000000 0.000000 0.000000 -1.126362 -0.615953 0.193382 0.000000 0.000000 0.000000 2.040121 4.891539 -0.204256 -2.511375 -8.173542 0.228736 1.723860 2.408747 -3.725283 -13.448563 -9.534281 -0.383968 0.000000 0.000000 0.000000 0.000000 0.000000 0.000000 -0.000000 0.000000 0.000000 -0.369180 -1.167589 0.791135 -4.397479 9.561752 -7.435547 -5.866968 1.313401 4.800723 0.000000 0.000000 0.000000 0.000000 0.000000 0.000000 9.451270 -1.192362 0.314816 -7.633959 1.023222 -0.772733 -2.845992 -3.777186 3.184940 0.000000 0.000000 0.000000 1.610915 -1.220948 2.390850 -2.953269 0.899941 -1.614731 -0.111146 1.326063 -0.827072 0.000000 0.000000 0.000000
-15.476582 27.973182 373.275390 -0.869671 0.875285 11.091149 0.685168 -1.026152 -11.078370 -0.000000 0.000000 0.000000 -2.050032 -1.148396 0.327226 0.000000 0.000000 0.000000 2.594348 -1.398713 0.111859 -4.237427 4.250775 -1.514948 1.118416 -1.849812 2.726070 -16.593074 -10.044633 -6.341643 0.000000 0.000000 0.000000 0.000000 0.000000 0.000000 -0.000000 0.000000 0.000000 0.606296 -1.547642 1.022745 2.149562 7.777573 -9.163967 -16.096482 -0.250500 8.737086 0.000000 0.000000 0.000000 0.000000 0.000000 0.000000 11.162121 -4.773657 -13.074949 -10.180109 1.991136 2.192513 -2.876039 -3.409345 4.144953 0.000000 0.000000 0.000000 2.169379 -2.128003 -7.524554 -3.256974 1.673980 -2.534757 0.240463 0.275556 -0.681254 0.000000 0.000000 0.000000
-15.417716 28.350475 373.265743 -0.932859 0.716487 21.719680 0.601592 -1.010771 -21.708541 -0.000000 0.000000 0.000000 -3.142011 -2.055838 0.286325 0.000000 0.000000 0.000000 1.648858 -5.979681 0.289874 -2.611584 12.823006 -1.813536 -0.885283 -5.495049 6.915009 -11.255697 -3.671031 -8.138746 0.000000 0.000000 0.000000 0.000000 0.000000 0.000000 -0.330239 1.561618 -0.521055 0.081939 -4.859835 2.733465 6.727743 4.954910 -7.267499 -20.264977 2.851839 7.983817 0.000000 0.000000 0.000000 0.000000 0.000000 0.000000 15.052794 -8.594345 -22.644064 -14.172779 5.045541 2.020401 -5.535227 -10.361960 2.282347 0.000000 0.000000 0.000000 2.162187 -2.633172 -17.113428 -3.173484 2.154018 -3.404917 1.265593 -0.989734 -1.076798 0.000000 0.000000 0.000000
-15.392641 28.555582 373.594359 -1.082893 0.150116 28.604987 0.068427 -0.703452 -28.616169 -0.172473 -0.013569 -0.043368 -3.538864 -3.305512 -0.159781 0.000000 0.000000 0.000000 -0.285622 -9.541719 0.240837 3.477515 18.992773 -1.189542 -3.424295 -15.852420 9.712784 2.525627 27.273747 -8.802397 0.000000 0.000000 0.000000 0.000000 0.000000 0.000000 -0.012604 3.105615 -0.674216 -2.487152 -7.962695 4.066401 9.155311 1.382021 -2.267609 -16.882118 5.551728 5.244868 0.000000 0.000000 0.000000 0.000000 0.000000 0.000000 15.326117 -11.133945 -30.288846 -14.568717 6.663995 2.536434 -8.433582 -14.746445 5.091600 0.000000 0.000000 0.000000 2.696054 -3.493681 -24.565996 -2.644237 2.514069 -3.373140 0.846721 -0.665830 -1.697538 0.000000 0.000000 0.000000
-15.473417 28.835836 373.289379 -1.450248 0.486293 34.627319 -0.412120 -0.973236 -34.655447 -0.287560 -0.101458 -0.076682 -4.274498 -5.339482 -0.998469 0.000000 0.000000 0.000000 -4.154888 -11.451708 -0.169904 14.186009 16.854829 1.370210 -9.087795 -14.057726 2.807612 9.958762 44.996332 -8.167511 0.000000 0.000000 0.000000 0.000000 0.000000 0.000000 -1.534041 4.371150 0.003370 -5.119913 -11.040471 4.296212 8.671935 0.330358 1.380597 -5.383936 2.113778 1.815876 0.000000 0.000000 0.000000 0.000000 0.000000 0.000000 11.619820 -12.975082 -39.220285 -12.102169 6.308959 4.340775 -10.156877 -15.353578 11.750165 0.000000 0.000000 0.000000 2.746073 -4.740507 -29.547406 -1.858940 2.813294 -4.606143 0.869143 -1.273049 -2.199291 0.000000 0.000000 0.000000
-15.682727 28.932882 373.176223 -1.887370 0.443462 33.657425 -0.323582 -1.154995 -33.693111 -0.205171 -0.324641 -0.082718 -5.467277 -7.345774 -2.055263 0.000000 0.000000 0.000000 -10.781115 -9.233057 -0.689191 28.164834 4.418278 7.537327 -15.742893 -40.948967 -26.871873 -143.020282 75.623936 145.822526 0.000000 0.000000 0.000000 0.000000 0.000000 0.000000 -3.270062 7.986338 -0.256596 -10.596190 -15.774540 4.064298 15.515470 -2.906506 4.317691 -3.301353 2.095268 0.092125 0.000000 0.000000 0.000000 0.000000 0.000000 0.000000 7.349342 -11.253456 -42.256072 -7.135177 4.788256 6.335903 -10.993585 -13.018740 20.945338 0.000000 0.000000 0.000000 3.545122 -5.922079 -29.192052 -1.015695 3.858404 -3.972641 -1.250065 -1.715021 -1.711882 0.000000 0.000000 0.000000
